<?xml version="1.0" encoding="UTF-8"?>
<svg class="svg-scale" width="25px" height="25px" viewBox="-1 -1 27 27" version="1.1" xmlns="http://www.w3.org/2000/svg" xmlns:xlink="http://www.w3.org/1999/xlink">
    <title>confirm icon</title>
    <g id="confirm" stroke="black" stroke-width="1" fill="none" fill-rule="evenodd">
        <g id="confirm-icon" fill="greenyellow" fill-rule="nonzero">
            <path d="M12.4160368,2.63898664e-07 C5.56971059,2.63898664e-07 1.46610367e-07,5.5697144 1.46610367e-07,12.4160421 C1.46610367e-07,19.2623692 5.56971059,24.8260222 12.4160368,24.8260222 C19.2623634,24.8260222 24.8260222,19.2623692 24.8260222,12.4160421 C24.8260222,5.5697144 19.2623634,2.63898664e-07 12.4160368,2.63898664e-07 Z M17.4330656,7.31264573 C18.5124466,7.32499032 19.3510852,8.06397607 19.6271584,8.93852011 C19.9032404,9.81306386 19.6386527,10.8982762 18.7619482,11.528099 L11.3568734,17.0481923 C10.455068,17.7214274 9.18600076,17.649086 8.3672619,16.8769681 L5.85950768,14.4995241 C5.32948774,14.0130342 5.05965195,13.3625962 5.0746021,12.7539444 C5.08957512,12.1452935 5.35054334,11.6008726 5.738287,11.1901968 C6.12603067,10.7795194 6.65584887,10.4839764 7.26263576,10.4340816 C7.86539585,10.3845147 8.52841368,10.6155776 9.04307266,11.1098877 L9.05518268,11.115928 L10.1476753,12.146316 L15.9844593,7.79297384 C16.4002642,7.47376642 16.9089031,7.30489532 17.4330501,7.31263635 L17.4330656,7.31264573 Z" id="Shape"></path>
        </g>
    </g>
</svg>