<?xml version="1.0" encoding="UTF-8"?>
<svg width="89px" height="79px" viewBox="0 0 89 79" version="1.1" xmlns="http://www.w3.org/2000/svg" xmlns:xlink="http://www.w3.org/1999/xlink">
    <!-- Generator: Sketch 64 (93537) - https://sketch.com -->
    <title>jartsAnimated</title>
    <desc>Created with Sketch.</desc>
    <defs>
        <path d="M69.469,0 L69.469,13 L50.203,13 L50.203,17 L30.938,17 L30.938,9 L11.672,9 L11.672,4 L0,4 L0,79 L11.672,79 L30.938,79 L50.203,79 L69.469,79 L88.734,79 L88.734,0 L69.469,0 Z M11.953,78.297 L14.484,57.625 C14.696,56.758 14.836,55.96 14.906,55.234 L14.906,55.234 L15.891,47.5 C16.055,46.539 16.148,45.695 16.172,44.969 L16.172,44.969 L18,32.312 C18.094,31.352 18.234,30.508 18.422,29.781 L18.422,29.781 L19.969,22.609 C20.813,22.633 21.563,22.821 22.219,23.172 L22.219,23.172 L22.922,25.281 C22.968,26.242 23.11,27.086 23.344,27.812 L23.344,27.812 L25.031,37.656 C25.29,38.547 25.43,39.344 25.453,40.047 L25.453,40.047 C25.617,41.008 25.711,41.898 25.734,42.719 L25.734,42.719 C25.922,43.657 26.016,44.5 26.016,45.25 L26.016,45.25 L27.281,52.703 C27.445,53.64 27.54,54.484 27.563,55.234 L27.563,55.234 L29.25,68.031 C29.344,69.016 29.484,69.859 29.672,70.562 L29.672,70.562 L30.516,75.484 L30.656,75.484 L30.656,78.719 L28.547,78.578 L28.266,76.187 C27.984,75.391 27.797,74.641 27.703,73.937 L27.703,73.937 L27,68.875 C26.836,67.914 26.742,67.023 26.719,66.203 L26.719,66.203 C26.531,65.242 26.438,64.398 26.438,63.672 L26.438,63.672 L26.016,61.141 C25.008,61.305 24.117,61.398 23.344,61.422 L23.344,61.422 L17.578,61.422 C16.711,61.585 16.242,62.101 16.172,62.969 L16.172,62.969 L14.203,78.437 L14.203,78.578 L13.781,78.578 L11.953,78.297 Z M69.891,78.437 L69.891,76.609 L77.766,76.187 C78.727,76 79.57,75.719 80.297,75.344 L80.297,75.344 C81.141,74.969 81.844,74.594 82.406,74.219 L82.406,74.219 L84.375,72.672 C84.915,71.922 85.336,71.219 85.641,70.562 L85.641,70.562 C85.945,69.602 86.133,68.711 86.203,67.891 L86.203,67.891 C85.992,66.953 85.664,66.11 85.219,65.359 L85.219,65.359 C84.797,64.633 84.328,64.024 83.813,63.531 L83.813,63.531 C83.156,62.922 82.547,62.406 81.984,61.984 L81.984,61.984 C81.188,61.422 80.39,61.047 79.594,60.859 L79.594,60.859 L77.063,60.016 L74.953,58.75 L73.547,56.922 C73.031,56.172 72.61,55.469 72.281,54.812 L72.281,54.812 C71.836,53.969 71.508,53.172 71.297,52.422 L71.297,52.422 L70.594,49.75 C70.265,48.766 70.031,47.875 69.891,47.078 L69.891,47.078 L69.75,46.516 L69.891,40.75 C70.008,39.719 70.195,38.781 70.453,37.937 L70.453,37.937 L71.297,35.406 C71.648,34.585 72.071,33.883 72.563,33.297 L72.563,33.297 L75.516,29.5 L77.344,27.953 C78.07,27.391 78.679,26.875 79.172,26.406 L79.172,26.406 L81,24.859 L83.25,23.734 C84.187,23.453 84.985,23.125 85.641,22.75 L85.641,22.75 C86.696,22.773 87.633,22.914 88.453,23.172 L88.453,23.172 L88.453,24.859 L84.938,26.266 C84.117,26.617 83.414,27.039 82.828,27.531 L82.828,27.531 C82.102,28.047 81.492,28.563 81,29.078 L81,29.078 L79.031,30.484 L77.344,32.172 L74.391,35.969 C73.898,36.742 73.523,37.492 73.266,38.219 L73.266,38.219 L72.563,40.75 C72.211,41.804 72.024,42.789 72,43.703 L72,43.703 C72.094,44.758 72.234,45.695 72.422,46.516 L72.422,46.516 L73.266,49.047 C73.476,50.078 73.758,50.969 74.109,51.719 L74.109,51.719 C74.414,52.562 74.79,53.266 75.234,53.828 L75.234,53.828 C75.656,54.578 76.125,55.234 76.641,55.797 L76.641,55.797 C77.297,56.453 77.906,56.969 78.469,57.344 L78.469,57.344 C79.383,57.813 80.18,58.14 80.859,58.328 L80.859,58.328 L83.391,59.172 L85.359,60.578 L87.047,62.266 L88.172,64.375 C88.36,65.453 88.453,66.484 88.453,67.469 L88.453,67.469 L88.453,70.844 C88.195,71.758 87.914,72.555 87.609,73.234 L87.609,73.234 C87.188,74.008 86.719,74.664 86.203,75.203 L86.203,75.203 L84.234,76.75 L81.984,77.875 L79.313,78.437 L72.844,78.719 C71.789,78.719 70.804,78.625 69.891,78.437 L69.891,78.437 Z M50.484,24.297 L50.484,22.75 L67.078,22.75 L69.188,23.031 C69.093,23.687 68.953,24.297 68.766,24.859 L68.766,24.859 L60.891,24.859 L61.594,42.719 C61.594,43.562 61.547,44.313 61.453,44.969 L61.453,44.969 L61.453,52.141 C61.453,52.984 61.406,53.735 61.313,54.391 L61.313,54.391 L61.313,59.172 L61.172,59.594 L61.172,61.422 C61.172,62.266 61.125,63.016 61.031,63.672 L61.031,63.672 L60.75,68.172 L60.75,75.344 L61.031,77.453 L61.031,78.719 L58.781,78.719 L58.641,77.734 L58.641,63.531 L58.922,61.281 L59.063,40.469 L58.922,40.187 L58.781,24.859 L50.766,24.859 C50.578,24.695 50.484,24.508 50.484,24.297 L50.484,24.297 Z M31.641,47.078 L31.5,46.797 L31.359,36.25 L31.219,34.984 L32.063,22.75 L35.156,22.75 C36.141,23.031 37.031,23.219 37.828,23.312 L37.828,23.312 C38.672,23.804 39.469,24.133 40.219,24.297 L40.219,24.297 L44.297,26.687 C44.929,27.179 45.445,27.742 45.844,28.375 L45.844,28.375 L47.531,29.922 L49.5,37.656 C49.758,38.688 49.898,39.625 49.922,40.469 L49.922,40.469 L49.922,42.437 L49.781,43.703 L48.234,48.625 C48.07,49.492 47.79,50.289 47.391,51.016 L47.391,51.016 L45.281,55.375 L42.188,58.891 L40.219,60.156 C39.304,60.485 38.414,60.672 37.547,60.719 L37.547,60.719 C37.617,61.422 37.898,61.984 38.391,62.406 L38.391,62.406 C38.977,63.086 39.446,63.695 39.797,64.234 L39.797,64.234 L42.75,67.75 C43.406,68.265 43.922,68.828 44.297,69.437 L44.297,69.437 C44.859,70.047 45.328,70.657 45.703,71.266 L45.703,71.266 C46.172,72.039 46.64,72.695 47.109,73.234 L47.109,73.234 L48.656,74.922 C49.266,75.578 49.688,76.235 49.922,76.891 L49.922,76.891 L49.922,78.578 L48.375,78.578 C47.578,78.25 46.969,77.781 46.547,77.172 L46.547,77.172 L45,75.484 C44.39,74.852 43.922,74.242 43.594,73.656 L43.594,73.656 C43.148,72.93 42.679,72.321 42.188,71.828 L42.188,71.828 C41.719,71.148 41.203,70.585 40.641,70.141 L40.641,70.141 C40.172,69.367 39.703,68.758 39.234,68.312 L39.234,68.312 C38.601,67.656 38.086,67.047 37.688,66.484 L37.688,66.484 L34.734,62.969 L33.75,62.125 L33.75,63.672 C33.797,64.82 33.891,65.852 34.031,66.766 L34.031,66.766 L34.031,78.719 L31.922,78.719 L31.641,47.078 Z M8.859,22.75 L10.969,22.75 L11.391,49.469 L10.969,57.484 L11.109,67.891 L10.828,69.719 L9.141,74.5 L8.156,75.625 C7.852,76.07 7.523,76.445 7.172,76.75 L7.172,76.75 C6.844,77.172 6.516,77.547 6.188,77.875 L6.188,77.875 L2.813,78.719 L0.703,78.719 C0.422,78.156 0.281,77.594 0.281,77.031 L0.281,77.031 C0.656,76.656 1.078,76.422 1.547,76.328 L1.547,76.328 L3.234,75.906 C3.703,75.625 4.125,75.344 4.5,75.062 L4.5,75.062 L5.625,73.937 L7.313,71.406 L7.734,69.719 L8.438,68.312 L8.719,66.484 L8.859,60.156 L8.719,60.156 L8.859,22.75 Z M33.75,26.266 L33.75,27.953 L33.469,30.766 L33.609,48.906 L33.75,48.906 L33.75,58.891 L35.016,58.609 C36,58.562 36.891,58.469 37.688,58.328 L37.688,58.328 L40.922,55.656 L43.734,52.422 C44.063,51.578 44.39,50.875 44.719,50.312 L44.719,50.312 L46.406,46.094 L46.828,43.562 L47.672,41.312 C47.555,40.422 47.367,39.625 47.109,38.922 L47.109,38.922 C46.898,38.032 46.665,37.281 46.406,36.672 L46.406,36.672 L45.984,34.141 C45.844,33.273 45.563,32.524 45.141,31.891 L45.141,31.891 L43.594,30.484 C43.125,29.852 42.656,29.289 42.188,28.797 L42.188,28.797 L38.391,26.687 C37.617,26.336 36.867,26.101 36.141,25.984 L36.141,25.984 C35.367,25.585 34.617,25.305 33.891,25.141 L33.891,25.141 L33.75,26.266 Z M19.828,35.969 L16.875,59.031 L18.844,59.172 L23.344,59.031 C24.188,59.031 24.938,58.938 25.594,58.75 L25.594,58.75 L24.891,52.422 C24.703,51.742 24.562,51.086 24.469,50.453 L24.469,50.453 L23.906,48.766 L23.625,44.266 L21.094,30.203 L19.828,35.969 Z" id="path-1"></path>
    </defs>
    <g id="Page-1" stroke="none" stroke-width="1" fill="none" fill-rule="evenodd">
        <g id="jartsAnimated">
            <mask id="mask-2" fill="white">
                <use xlink:href="#path-1"></use>
            </mask>
            <g id="Clip-2"></g>
            <polygon id="fillColor" fill="#000000" mask="url(#mask-2)" points="-5 84 93.734 84 93.734 -5 -5 -5"></polygon>
            <path d="M72.8438,78.7188 C71.7888,78.7188 70.8048,78.6248 69.8908,78.4378 L69.8908,76.6098 L77.7658,76.1878 C78.7268,75.9998 79.5708,75.7188 80.2968,75.3438 C81.1408,74.9688 81.8438,74.5938 82.4068,74.2188 L84.3748,72.6718 C84.9138,71.9218 85.3358,71.2188 85.6408,70.5628 C85.9458,69.6018 86.1328,68.7108 86.2028,67.8908 C85.9918,66.9528 85.6638,66.1098 85.2188,65.3598 C84.7968,64.6328 84.3278,64.0238 83.8128,63.5308 C83.1568,62.9218 82.5468,62.4068 81.9848,61.9848 C81.1878,61.4218 80.3908,61.0468 79.5938,60.8598 L77.0628,60.0158 L74.9528,58.7498 L73.5468,56.9218 C73.0308,56.1718 72.6098,55.4688 72.2818,54.8128 C71.8358,53.9688 71.5078,53.1718 71.2968,52.4218 L70.5938,49.7498 C70.2658,48.7658 70.0308,47.8748 69.8908,47.0778 L69.7498,46.5158 L69.8908,40.7498 C70.0078,39.7188 70.1958,38.7808 70.4528,37.9378 L71.2968,35.4058 C71.6488,34.5858 72.0708,33.8828 72.5628,33.2968 L75.5158,29.4998 L77.3438,27.9528 C78.0708,27.3908 78.6798,26.8748 79.1718,26.4058 L80.9998,24.8598 L83.2498,23.7348 C84.1878,23.4528 84.9848,23.1248 85.6408,22.7498 C86.6958,22.7738 87.6328,22.9138 88.4528,23.1718 L88.4528,24.8598 L84.9378,26.2658 C84.1168,26.6168 83.4138,27.0388 82.8278,27.5308 C82.1018,28.0468 81.4918,28.5628 80.9998,29.0778 L79.0308,30.4848 L77.3438,32.1718 L74.3908,35.9688 C73.8988,36.7418 73.5238,37.4918 73.2658,38.2188 L72.5628,40.7498 C72.2108,41.8048 72.0238,42.7888 71.9998,43.7028 C72.0938,44.7578 72.2348,45.6958 72.4218,46.5158 L73.2658,49.0468 C73.4768,50.0778 73.7578,50.9688 74.1098,51.7188 C74.4138,52.5628 74.7888,53.2658 75.2348,53.8278 C75.6568,54.5778 76.1248,55.2348 76.6408,55.7968 C77.2968,56.4528 77.9058,56.9688 78.4688,57.3438 C79.3828,57.8128 80.1798,58.1408 80.8598,58.3278 L83.3908,59.1718 L85.3598,60.5778 L87.0468,62.2658 L88.1718,64.3748 C88.3598,65.4528 88.4528,66.4848 88.4528,67.4688 L88.4528,70.8438 C88.1958,71.7578 87.9138,72.5548 87.6098,73.2348 C87.1878,74.0078 86.7188,74.6638 86.2028,75.2028 L84.2348,76.7498 L81.9848,77.8748 L79.3128,78.4378 L72.8438,78.7188 Z" id="sPath" stroke="#000000" mask="url(#mask-2)"></path>
            <polygon id="sBar" stroke="#000000" mask="url(#mask-2)" points="69.4688 78.9998 88.7348 78.9998 88.7348 -0.0002 69.4688 -0.0002"></polygon>
            <path d="M61.0308,78.7188 L58.7808,78.7188 L58.6408,77.7348 L58.6408,63.5308 L58.9218,61.2818 L59.0628,40.4688 L58.9218,40.1878 L58.7808,24.8598 L50.7658,24.8598 C50.5778,24.6958 50.4848,24.5078 50.4848,24.2968 L50.4848,22.7498 L67.0778,22.7498 L69.1878,23.0308 C69.0938,23.6878 68.9528,24.2968 68.7658,24.8598 L60.8908,24.8598 L61.5938,42.7188 C61.5938,43.5628 61.5468,44.3128 61.4528,44.9688 L61.4528,52.1408 C61.4528,52.9848 61.4058,53.7348 61.3128,54.3908 L61.3128,59.1718 L61.1718,59.5938 L61.1718,61.4218 C61.1718,62.2658 61.1248,63.0158 61.0308,63.6718 L60.7498,68.1718 L60.7498,75.3438 L61.0308,77.4528 L61.0308,78.7188 Z" id="tPath" stroke="#000000" mask="url(#mask-2)"></path>
            <polygon id="tBar" stroke="#000000" mask="url(#mask-2)" points="50.2028 78.9998 69.4688 78.9998 69.4688 12.9998 50.2028 12.9998"></polygon>
            <g id="rPath" mask="url(#mask-2)" stroke="#000000">
                <g transform="translate(31.218800, 22.749800)" id="Path">
                    <path d="M2.531,36.141 L3.797,35.86 C4.781,35.813 5.672,35.719 6.469,35.578 L9.703,32.907 L12.516,29.672 C12.844,28.828 13.172,28.125 13.5,27.563 L15.188,23.344 L15.609,20.813 L16.453,18.563 C16.336,17.672 16.148,16.875 15.891,16.172 C15.68,15.281 15.445,14.531 15.188,13.922 L14.766,11.391 C14.625,10.524 14.344,9.774 13.922,9.141 L12.375,7.735 C11.906,7.102 11.438,6.539 10.969,6.047 L7.172,3.938 C6.398,3.586 5.648,3.352 4.922,3.235 C4.148,2.836 3.398,2.555 2.672,2.391 L2.531,3.516 L2.531,5.203 L2.25,8.016 L2.391,26.157 L2.531,26.157 L2.531,36.141 Z"></path>
                    <path d="M2.812,55.969 L0.703,55.969 L0.422,24.328 L0.281,24.047 L0.141,13.5 L-1.42108547e-14,12.235 L0.844,2.48689958e-14 L3.937,2.48689958e-14 C4.922,0.281 5.812,0.469 6.609,0.563 C7.453,1.055 8.25,1.383 9,1.547 L13.078,3.938 C13.711,4.43 14.227,4.992 14.625,5.625 L16.313,7.172 L18.281,14.906 C18.539,15.938 18.68,16.875 18.703,17.719 L18.703,19.688 L18.563,20.953 L17.016,25.875 C16.852,26.742 16.57,27.539 16.172,28.266 L14.063,32.625 L10.969,36.141 L9,37.407 C8.086,37.735 7.195,37.922 6.328,37.969 C6.398,38.672 6.68,39.235 7.172,39.657 C7.758,40.336 8.227,40.946 8.578,41.485 L11.531,45 C12.188,45.516 12.703,46.078 13.078,46.688 C13.641,47.297 14.109,47.906 14.484,48.516 C14.953,49.289 15.422,49.946 15.891,50.485 L17.438,52.172 C18.047,52.828 18.469,53.485 18.703,54.141 L18.703,55.828 L17.156,55.828 C16.359,55.5 15.75,55.032 15.328,54.422 L13.781,52.735 C13.172,52.102 12.703,51.492 12.375,50.907 C11.93,50.18 11.461,49.571 10.969,49.078 C10.5,48.399 9.984,47.836 9.422,47.391 C8.953,46.617 8.484,46.008 8.016,45.563 C7.383,44.906 6.867,44.297 6.469,43.735 L3.516,40.219 L2.531,39.375 L2.531,40.922 C2.578,42.071 2.672,43.102 2.812,44.016 L2.812,55.969 Z"></path>
                </g>
            </g>
            <polygon id="rBar" stroke="#000000" mask="url(#mask-2)" points="30.9368 78.9998 50.2028 78.9998 50.2028 16.9998 30.9368 16.9998"></polygon>
            <g id="aPath" mask="url(#mask-2)" stroke="#000000">
                <g transform="translate(11.952800, 22.609800)" id="Path">
                    <path d="M6.891,36.562 L11.391,36.422 C12.235,36.422 12.985,36.328 13.641,36.14 L12.938,29.812 C12.75,29.132 12.61,28.476 12.516,27.843 L11.953,26.156 L11.672,21.656 L9.141,7.593 L7.875,13.359 L4.922,36.422 L6.891,36.562 Z"></path>
                    <path d="M18.703,56.109 L16.594,55.968 L16.313,53.578 C16.032,52.781 15.844,52.031 15.75,51.328 L15.047,46.265 C14.883,45.304 14.789,44.414 14.766,43.593 C14.578,42.632 14.485,41.789 14.485,41.062 L14.063,38.531 C13.055,38.695 12.164,38.789 11.391,38.812 L5.625,38.812 C4.758,38.976 4.289,39.492 4.219,40.359 L2.25,55.828 L2.25,55.968 L1.828,55.968 L-1.0658141e-14,55.687 L2.532,35.015 C2.743,34.148 2.883,33.351 2.953,32.625 L3.938,24.89 C4.102,23.929 4.196,23.086 4.219,22.359 L6.047,9.703 C6.141,8.742 6.282,7.898 6.469,7.171 L8.016,1.77635684e-14 C8.86,0.023 9.61,0.211 10.266,0.562 L10.969,2.671 C11.016,3.632 11.157,4.476 11.391,5.203 L13.078,15.046 C13.336,15.937 13.477,16.734 13.5,17.437 C13.664,18.398 13.758,19.289 13.782,20.109 C13.969,21.046 14.063,21.89 14.063,22.64 L15.328,30.093 C15.493,31.031 15.586,31.875 15.61,32.625 L17.297,45.421 C17.391,46.406 17.532,47.25 17.719,47.953 L18.563,52.875 L18.703,52.875 L18.703,56.109 Z"></path>
                </g>
            </g>
            <path d="M30.9378,78.9998 L30.9378,8.9998 L11.6718,8.9998 C11.5468,55.1258 11.5468,78.4598 11.6718,78.9998 L30.9378,78.9998 Z" id="aBar" stroke="#000000" mask="url(#mask-2)"></path>
            <path d="M2.8128,78.7188 L0.7028,78.7188 C0.4218,78.1568 0.2808,77.5938 0.2808,77.0318 C0.6558,76.6558 1.0778,76.4218 1.5468,76.3278 L3.2348,75.9058 C3.7028,75.6248 4.1248,75.3438 4.4998,75.0628 L5.6248,73.9378 L7.3128,71.4068 L7.7348,69.7188 L8.4378,68.3128 L8.7188,66.4848 L8.8598,60.1568 L8.7188,60.1568 L8.8598,22.7498 L10.9688,22.7498 L11.3908,49.4688 L10.9688,57.4848 L11.1098,67.8908 L10.8278,69.7188 L9.1408,74.4998 L8.1558,75.6248 C7.8518,76.0708 7.5238,76.4458 7.1718,76.7498 C6.8438,77.1718 6.5158,77.5468 6.1878,77.8748 L2.8128,78.7188 Z" id="jPath" stroke="#000000" mask="url(#mask-2)"></path>
            <polygon id="jBar" stroke="#000000" mask="url(#mask-2)" points="-0.0002 78.9998 11.6718 78.9998 11.6718 3.9998 -0.0002 3.9998"></polygon>
        </g>
    </g>
</svg>